<svg xmlns="http://www.w3.org/2000/svg" width="64" height="64" viewBox="0 0 64 64"><defs><linearGradient id="ivory" x2="0.8" y2="1"><stop stop-color="#fffbee"/><stop offset="1" stop-color="#c6b79a"/></linearGradient><linearGradient id="paper" x2="0.5" y2="1"><stop stop-color="#f3ead5"/><stop offset="1" stop-color="#b5a17e"/></linearGradient><linearGradient id="metal" x2="0.8" y2="1"><stop stop-color="#fffdf5"/><stop offset="0.5" stop-color="#ddd5c5"/><stop offset="1" stop-color="#968e7e"/></linearGradient></defs><style>.detail{fill:none;stroke:#75674f;stroke-width:2;stroke-linecap:round;stroke-linejoin:round}.shine{fill:none;stroke:#fffbee;stroke-width:2;stroke-linecap:round}</style><path fill="url(#ivory)" d="M38 15C22 11 8 25 10 42c1 13 12 19 23 14 7-3 11-7 12-12 2-6 9-11 7-17-2-7-7-10-14-12Z"/><path fill="#bfae89" d="M35 17C40 8 51 4 59 9c-6 10-13 13-24 8Z"/><path class="detail" d="M35 16l-3-9"/><path class="shine" d="M21 25c-6 5-7 14-3 20"/></svg>
